<?xml version="1.0" encoding="utf-8"?>
<!-- Svg Vector Icons : http://www.onlinewebfonts.com/icon -->
<!DOCTYPE svg PUBLIC "-//W3C//DTD SVG 1.1//EN" "http://www.w3.org/Graphics/SVG/1.1/DTD/svg11.dtd">
<svg version="1.1" xmlns="http://www.w3.org/2000/svg" xmlns:xlink="http://www.w3.org/1999/xlink" x="0px" y="0px" viewBox="0 0 1000 1000" enable-background="new 0 0 1000 1000" xml:space="preserve">
<metadata> Svg Vector Icons : http://www.onlinewebfonts.com/icon </metadata>
<g><g transform="translate(0.000000,511.000000) scale(0.100000,-0.100000)"><path d="M4711.1,4150.6C2722.8,4049,1065.3,3098.7,623,1801.7c-53.8-159.4-105.6-432.3-105.6-559.8v-87.7H5000h4482.6v87.7c0,129.5-51.8,400.4-107.6,565.8C9006.5,2885.5,7741.4,3768.1,6155.5,4051C5715.2,4128.7,5115.5,4170.5,4711.1,4150.6z M4322.6,3678.5c135.5-67.7,25.9-163.4-189.3-163.4c-103.6,0-155.4,10-197.2,35.9c-117.5,77.7-19.9,153.4,197.2,153.4C4211,3704.4,4294.7,3692.4,4322.6,3678.5z M6482.3,3399.5c55.8-41.8,29.9-97.6-67.7-147.4c-169.3-87.7-378.5-79.7-378.5,12C6036,3365.7,6384.6,3471.2,6482.3,3399.5z M3143.2,2859.6c31.9-31.9,29.9-37.9-21.9-81.7c-103.6-91.6-348.6-121.5-432.3-53.8c-41.8,33.9-41.8,35.9-6,81.7C2758.7,2899.5,3069.5,2935.3,3143.2,2859.6z M5239.1,2758c137.5-71.7,25.9-159.4-199.2-159.4c-203.2,0-308.8,89.6-183.3,157.4C4930.3,2795.9,5163.4,2797.9,5239.1,2758z M8406.8,2662.4c123.5-61.8,33.9-151.4-165.4-167.4c-85.7-8-145.4-2-199.2,19.9c-95.6,41.8-101.6,103.6-8,143.4C8113.9,2694.3,8341.1,2696.3,8406.8,2662.4z M3958,2158.3c27.9-75.7-107.6-167.3-275-183.3c-179.3-17.9-253,39.8-159.4,123.5C3619.4,2184.2,3932.1,2226.1,3958,2158.3z M7313,2036.8c129.5-67.7,155.4-131.5,63.8-167.3c-113.6-43.8-424.4,71.7-424.4,159.4c0,53.8,17.9,61.8,139.5,61.8C7175.6,2090.6,7233.3,2076.7,7313,2036.8z M1991.7,1837.6c127.5-65.7,159.4-107.6,119.5-155.4c-57.8-69.7-386.5,14-446.3,111.6C1599.2,1903.3,1806.4,1931.2,1991.7,1837.6z M5537.9,1736c37.9-17.9,69.7-47.8,69.7-63.8c0-81.7-276.9-129.5-416.4-71.7c-87.7,35.9-103.6,65.8-61.8,111.6C5189.3,1777.8,5426.3,1793.8,5537.9,1736z"/><path d="M457.6,909.2c-193.3-129.5-191.3-404.4,4-522c65.7-39.8,105.6-39.8,4448.8-45.8c2410.6-4,4430.8,0,4490.6,6c302.8,35.9,392.5,412.4,135.5,567.8C9474.6,955,9398.9,955,4998,955H523.3L457.6,909.2z"/><path d="M658.8,98.3C381.9-1.3,182.7-230.4,120.9-515.3C93-650.8,93-1103,120.9-1240.5c51.8-249,263-506,490.1-597.7l115.5-45.8H5000h4273.4l115.5,45.8c227.1,91.6,438.3,348.7,490.1,597.7c27.9,137.5,27.9,589.7,0,725.2c-53.8,247-241.1,482.1-470.2,589.7c-109.6,49.8-135.5,53.8-456.2,59.8l-340.7,8L8414.8-61.1c-729.2-751.1-1330.9-980.2-1821-691.3c-61.7,35.9-229.1,187.3-388.5,346.7C6036-236.4,5894.5-108.9,5850.7-90.9c-149.4,61.7-344.7,27.9-498.1-85.7c-69.7-49.8-123.5-71.7-193.3-79.7c-125.5-12-217.2,39.9-434.3,245l-159.4,149.4H2667C832.2,136.2,762.4,136.2,658.8,98.3z"/><path d="M523.3-2296.4c41.8-719.2,394.5-1179.4,1081.8-1410.5c292.9-99.6,643.5-159.4,1203.3-203.2c440.3-33.9,4207.7-33.9,4582.2,0C8598-3798.6,9157.9-3483.8,9391-2784.5c45.8,139.5,91.6,418.4,91.6,565.8v127.5l-2364.8-8c-2368.8-10-2470.4-12-2984.4-83.7c-510-73.7-1032-211.2-1366.7-362.6c-221.1-101.6-446.3-259-593.7-416.4c-127.5-137.5-139.5-145.4-151.4-103.6c-29.9,93.6-177.3,368.6-265,494.1c-51.8,71.7-167.4,207.2-261,304.8l-167.3,173.3H919.8H511.4L523.3-2296.4z"/></g></g>
</svg>